<svg width="60" height="60" viewBox="0 0 60 60" fill="none" xmlns="http://www.w3.org/2000/svg">
<path d="M55.5064 10.3448H4.49355C2.01176 10.3448 0 12.3566 0 14.8384V45.1617C0 47.6434 2.01176 49.6553 4.49355 49.6553H55.5064C57.9881 49.6553 60 47.6435 60 45.1617V14.8384C60 12.3566 57.9882 10.3448 55.5064 10.3448Z" fill="#41479B"/>
<path d="M59.9378 14.0955C59.5836 11.9675 57.735 10.3447 55.5064 10.3447H54.3373L35.1724 22.901V10.3448H24.8276V22.9011L5.66273 10.3448H4.49355C2.265 10.3448 0.416367 11.9675 0.0622266 14.0957L16.4425 24.8277H0V35.1725H16.4425L0.0622266 45.9043C0.416367 48.0323 2.265 49.6552 4.49355 49.6552H5.66273L24.8276 37.0989V49.6552H35.1724V37.0989L54.3373 49.6552H55.5064C57.735 49.6552 59.5836 48.0325 59.9378 45.9043L43.5575 35.1723H60V24.8275H43.5575L59.9378 14.0955Z" fill="#F5F5F5"/>
<path d="M33.1035 10.3448H26.8965V26.8965H0V33.1035H26.8965V49.6552H33.1035V33.1035H60V26.8965H33.1035V10.3448Z" fill="#FF4B55"/>
<path d="M2.90543 49.3654L24.7706 35.1724H20.9705L1.08094 48.0831C1.56762 48.6512 2.19305 49.0962 2.90543 49.3654Z" fill="#FF4B55"/>
<path d="M40.5923 35.1724H36.7922L57.9698 48.919C58.5625 48.5299 59.057 48.0042 59.4097 47.3868L40.5923 35.1724Z" fill="#FF4B55"/>
<path d="M0.474492 12.8291L18.9585 24.8275H22.7586L1.81348 11.2314C1.25109 11.65 0.790898 12.1973 0.474492 12.8291Z" fill="#FF4B55"/>
<path d="M38.9726 24.8276L58.8986 11.893C58.4065 11.3269 57.7761 10.8844 57.0588 10.6204L35.1724 24.8276H38.9726Z" fill="#FF4B55"/>
</svg>
