<svg width="60" height="61" viewBox="0 0 60 61" fill="none" xmlns="http://www.w3.org/2000/svg">
<g clip-path="url(#clip0_404_91)">
<path d="M1.60547 12.2418C0.624141 13.0662 0 14.3017 0 15.6836V46.0069C0 47.3887 0.624141 48.6243 1.60547 49.4486L30 30.8452L1.60547 12.2418Z" fill="#41479B"/>
<path d="M1.60547 49.4486C2.38652 50.1047 3.39352 50.5004 4.49344 50.5004H55.5063C57.988 50.5004 59.9999 48.4886 59.9999 46.0068V30.8452H30L1.60547 49.4486Z" fill="#FF4B55"/>
<path d="M55.5064 11.1901H4.49355C3.39363 11.1901 2.38652 11.5859 1.60558 12.2418L30 30.8452H60V15.6836C60 13.2018 57.9882 11.1901 55.5064 11.1901Z" fill="#F5F5F5"/>
</g>
<defs>
<clipPath id="clip0_404_91">
<rect width="60" height="60" fill="white" transform="translate(0 0.845215)"/>
</clipPath>
</defs>
</svg>
