<svg width="94" height="89" viewBox="0 0 94 89" fill="none" xmlns="http://www.w3.org/2000/svg">
<path d="M39.25 17.8906V55.25H43V45.7548H50.0898L48.7227 42.2548H43V27.5312L39.25 17.8906Z" fill="#060923"/>
<path d="M0 88.7544L36 0.00439453H39.625L74.125 88.7544H70.125L59.875 62.0044H14.75L4 88.7544H0ZM16.125 58.6294H58.5L37.875 4.75439L16.125 58.6294Z" fill="#060923"/>
<path d="M78.1267 2.75C72.7934 0.9167 65.6267 0 56.6267 0H43.0317L44.3443 3.375H56.5017C68.0017 3.375 76.2934 4.875 81.3767 7.875C86.5434 10.7917 89.1267 15.7083 89.1267 22.625C89.1267 29.2917 86.7517 34.25 82.0017 37.5C74.2127 41.75 68.5469 42.25 60 42.25H59.4571L60.8203 45.75H64.5017C72.6684 45.75 78.96 47.4583 83.3767 50.875C87.7934 54.2083 90.0017 59.1667 90.0017 65.75C90.0017 72.5833 87.653 77.75 83.6267 80.75C80.2127 83.2938 75.81 84.31 75.81 84.31L77.08 87.58C77.08 87.58 81.7127 86.75 86.5017 83.125C91.4184 79.375 93.8767 73.5833 93.8767 65.75C93.8767 60.4167 92.21 55.75 88.8767 51.75C85.6267 47.75 81.0434 45.0833 75.1267 43.75C80.96 42.4167 85.3767 39.9167 88.3767 36.25C91.46 32.5 93.0017 27.9583 93.0017 22.625C93.0017 17.875 91.835 13.8333 89.5017 10.5C87.2517 7.0833 83.46 4.5 78.1267 2.75Z" fill="#060923"/>
<path d="M39.25 65.25V88.7574H66.8125L65.5 85.3824H43V65.25H39.25Z" fill="#060923"/>
</svg>
