<svg width="60" height="60" viewBox="0 0 60 60" fill="none" xmlns="http://www.w3.org/2000/svg">
<path d="M30.3206 35.0625C29.4187 35.4768 28.4306 36.0168 26.4525 37.1025C25.7025 37.5243 24.9187 37.9462 24.1894 38.3437C24.1387 38.2931 24.0862 38.2293 24.0356 38.1768C20.1225 33.9956 12.885 31.0425 13.1925 25.4268C13.3069 23.3812 14.01 18.0112 27.0919 11.49C37.8581 6.1837 46.425 7.6537 47.9044 10.9143C50.0306 15.5625 43.3125 24.2118 32.1937 25.4662C30.9632 25.7158 29.6922 25.6857 28.4749 25.378C27.2575 25.0703 26.1248 24.493 25.1606 23.6887C24.5719 23.0493 24.4837 23.0118 24.2662 23.1393C23.9081 23.3268 24.1387 23.9062 24.2662 24.2381C24.6904 25.006 25.2642 25.681 25.9537 26.2234C26.6432 26.7657 27.4344 27.1643 28.2806 27.3956C32.6561 28.3413 37.2182 27.8894 41.3231 26.1037C48.0619 23.4956 53.3231 16.245 51.7819 10.1662C50.235 4.00308 40.005 1.97058 30.3262 5.40933C24.2649 7.45194 18.6647 10.6674 13.845 14.8725C8.5125 19.86 7.66875 24.195 8.01375 26.01C9.255 32.4543 18.1387 36.6487 21.7012 39.7556C21.5137 39.8587 21.3562 39.9431 21.2156 40.0237C19.4381 40.9068 12.6619 44.4487 10.9725 48.195C9.05437 52.44 11.28 55.4831 12.75 55.8918C14.9653 56.4225 17.291 56.248 19.4023 55.3929C21.5137 54.5377 23.3053 53.0445 24.5269 51.1218C25.5643 49.5275 26.2013 47.7062 26.3838 45.8128C26.5662 43.9194 26.2888 42.01 25.575 40.2468C25.9961 39.9109 26.4453 39.6117 26.9175 39.3525C27.825 38.8162 28.6894 38.2875 29.4562 37.8787C32.082 36.6488 34.9474 36.0155 37.8469 36.0243C43.9331 36.7406 45.135 40.5375 44.9044 42.1368C44.7965 42.7043 44.5683 43.242 44.2352 43.7139C43.902 44.1858 43.4717 44.5808 42.9731 44.8725C42.5512 45.1406 42.4106 45.2306 42.4481 45.4218C42.4987 45.7031 42.7031 45.69 43.0612 45.6393C43.9757 45.3503 44.7813 44.7915 45.3723 44.0362C45.9632 43.2809 46.3119 42.3645 46.3725 41.4075C46.56 37.6575 42.9844 33.5437 36.6544 33.5812C34.759 33.5845 32.8825 33.9584 31.1306 34.6818C30.8494 34.7981 30.5762 34.9231 30.3112 35.0568L30.3206 35.0625ZM21.2737 49.7606C19.2525 51.96 16.44 52.7906 15.225 52.0875C13.9125 51.3375 14.4319 48.0843 16.9125 45.7575C18.3817 44.4337 19.9696 43.2481 21.6562 42.2156C21.9506 42.0281 22.3856 41.7806 22.9087 41.4656C22.9987 41.415 23.0494 41.3887 23.0494 41.3887L23.3569 41.2012C23.7993 42.6845 23.8395 44.2588 23.4735 45.7628C23.1075 47.2668 22.3483 48.6465 21.2737 49.7606Z" fill="#CD6799"/>
</svg>
