<svg width="60" height="60" viewBox="0 0 60 60" fill="none" xmlns="http://www.w3.org/2000/svg">
<path fill-rule="evenodd" clip-rule="evenodd" d="M24.4058 3.75C20.2862 3.75 16.9467 6.98349 16.9467 10.9722V15.9722H29.8566V17.3611H11.209C7.08951 17.3611 3.75 20.5946 3.75 24.5833V35.4167C3.75 39.4054 7.08951 42.6388 11.209 42.6388H15.5123V36.5278C15.5123 32.5391 18.8518 29.3055 22.9714 29.3055H36.7418C40.2276 29.3055 43.0532 26.5695 43.0532 23.1945V10.9722C43.0532 6.98349 39.7138 3.75 35.5943 3.75H24.4058ZM22.6845 12.6389C24.1104 12.6389 25.2664 11.5196 25.2664 10.1389C25.2664 8.75818 24.1104 7.63888 22.6845 7.63888C21.2584 7.63888 20.1024 8.75818 20.1024 10.1389C20.1024 11.5196 21.2584 12.6389 22.6845 12.6389Z" fill="url(#paint0_linear_404_188)"/>
<path fill-rule="evenodd" clip-rule="evenodd" d="M35.5939 56.2501C39.7134 56.2501 43.053 53.0166 43.053 49.0279V44.0279H30.1431V42.6391H48.7907C52.9102 42.6391 56.2496 39.4054 56.2496 35.4167V24.5834C56.2496 20.5947 52.9102 17.3612 48.7907 17.3612H44.4874V23.4722C44.4874 27.4611 41.1478 30.6946 37.0284 30.6946H23.2579C19.7721 30.6946 16.9464 33.4306 16.9464 36.8056V49.0279C16.9464 53.0166 20.286 56.2501 24.4054 56.2501H35.5939ZM37.3153 47.3612C35.8892 47.3612 34.7332 48.4804 34.7332 49.8612C34.7332 51.2419 35.8892 52.3611 37.3153 52.3611C38.7412 52.3611 39.8972 51.2419 39.8972 49.8612C39.8972 48.4804 38.7412 47.3612 37.3153 47.3612Z" fill="url(#paint1_linear_404_188)"/>
<defs>
<linearGradient id="paint0_linear_404_188" x1="23.4017" y1="3.75" x2="23.4017" y2="42.6388" gradientUnits="userSpaceOnUse">
<stop stop-color="#327EBD"/>
<stop offset="1" stop-color="#1565A7"/>
</linearGradient>
<linearGradient id="paint1_linear_404_188" x1="36.5981" y1="17.3612" x2="36.5981" y2="56.2501" gradientUnits="userSpaceOnUse">
<stop stop-color="#FFDA4B"/>
<stop offset="1" stop-color="#F9C600"/>
</linearGradient>
</defs>
</svg>
