<svg width="60" height="60" viewBox="0 0 60 60" fill="none" xmlns="http://www.w3.org/2000/svg">
<g clip-path="url(#clip0_404_174)">
<path d="M0 30V60H30H60V30V0H30H0V30Z" fill="#007ACC"/>
<path d="M13.2682 30.1991L13.2492 32.6562H17.154H21.0587L21.0587 43.7514V54.8467H23.8206H26.5825V43.7514L26.5825 32.6562H30.4873H34.392V30.2467C34.392 28.9133 34.3635 27.7991 34.3254 27.7705C34.2968 27.7324 29.5444 27.7133 23.7825 27.7229L13.2968 27.7514L13.2682 30.1991Z" fill="white"/>
<path d="M48.4141 27.6817C49.9379 28.0626 51.0998 28.7388 52.1664 29.8436C52.7188 30.4341 53.5379 31.5103 53.6045 31.7674C53.6236 31.8436 51.0141 33.596 49.4331 34.5769C49.376 34.615 49.1474 34.3674 48.8902 33.9865C48.1188 32.8626 47.3093 32.3769 46.0712 32.2912C44.2521 32.1674 43.0807 33.1198 43.0902 34.7103C43.0902 35.1769 43.1569 35.4531 43.3474 35.8341C43.7474 36.6626 44.4902 37.1579 46.8236 38.1674C51.1188 40.015 52.9569 41.2341 54.0998 42.9674C55.376 44.9007 55.6617 47.9865 54.795 50.2817C53.8426 52.7769 51.4807 54.4722 48.1569 55.0341C47.1283 55.215 44.6902 55.1864 43.5855 54.9864C41.176 54.5579 38.8902 53.3674 37.4807 51.8055C36.9283 51.196 35.8521 49.6055 35.9188 49.4912C35.9474 49.4531 36.195 49.3007 36.4712 49.1388C36.7379 48.9865 37.7474 48.4055 38.6998 47.8531L40.4236 46.8531L40.7855 47.3864C41.2902 48.1579 42.395 49.215 43.0617 49.5674C44.976 50.5769 47.6045 50.4341 48.8998 49.2722C49.4521 48.7674 49.6807 48.2436 49.6807 47.4722C49.6807 46.7769 49.595 46.4722 49.2331 45.9484C48.7664 45.2817 47.8141 44.7198 45.1093 43.5484C42.0141 42.215 40.6807 41.3865 39.4617 40.0722C38.7569 39.3103 38.0902 38.0912 37.8141 37.0722C37.5855 36.2245 37.5283 34.1007 37.7093 33.2436C38.3474 30.2531 40.6045 28.1674 43.8617 27.5484C44.9188 27.3484 47.376 27.4245 48.4141 27.6817Z" fill="white"/>
</g>
<defs>
<clipPath id="clip0_404_174">
<rect width="60" height="60" fill="white"/>
</clipPath>
</defs>
</svg>
