<svg xmlns="http://www.w3.org/2000/svg" width="61" height="61" viewBox="0 0 61 61" fill="none">
  <path fill-rule="evenodd" clip-rule="evenodd" d="M30.1774 30.6102C30.1774 26.4682 33.5354 23.1102 37.6774 23.1102C41.8195 23.1102 45.1774 26.4682 45.1774 30.6102C45.1774 34.7523 41.8195 38.1102 37.6774 38.1102C33.5354 38.1102 30.1774 34.7523 30.1774 30.6102Z" fill="#1ABCFE"/>
  <path fill-rule="evenodd" clip-rule="evenodd" d="M15.1774 45.6102C15.1774 41.4682 18.5353 38.1102 22.6774 38.1102H30.1774V45.6102C30.1774 49.7523 26.8195 53.1102 22.6774 53.1102C18.5353 53.1102 15.1774 49.7523 15.1774 45.6102Z" fill="#0ACF83"/>
  <path fill-rule="evenodd" clip-rule="evenodd" d="M30.1774 8.11023V23.1102H37.6774C41.8195 23.1102 45.1774 19.7523 45.1774 15.6102C45.1774 11.4681 41.8195 8.11023 37.6774 8.11023H30.1774Z" fill="#FF7262"/>
  <path fill-rule="evenodd" clip-rule="evenodd" d="M15.1774 15.6102C15.1774 19.7523 18.5353 23.1102 22.6774 23.1102H30.1774V8.11023H22.6774C18.5353 8.11023 15.1774 11.4681 15.1774 15.6102Z" fill="#F24E1E"/>
  <path fill-rule="evenodd" clip-rule="evenodd" d="M15.1774 30.6102C15.1774 34.7523 18.5353 38.1102 22.6774 38.1102H30.1774V23.1102H22.6774C18.5353 23.1102 15.1774 26.4682 15.1774 30.6102Z" fill="#A259FF"/>
</svg>