<svg width="60" height="60" viewBox="0 0 60 60" fill="none" xmlns="http://www.w3.org/2000/svg">
<path d="M10.875 46.125L11.1937 45.6806L26.2312 17.1543L26.2631 16.8524L19.635 4.40245C19.5137 4.17478 19.3238 3.99103 19.0923 3.87719C18.8608 3.76336 18.5993 3.7252 18.3449 3.76812C18.0905 3.81103 17.8561 3.93285 17.6747 4.11634C17.4934 4.29983 17.3743 4.5357 17.3344 4.79057L10.875 46.125Z" fill="#FFC24A"/>
<path d="M11.0625 45.7875L11.3025 45.3187L26.1844 17.0887L19.5731 4.58998C19.4641 4.37261 19.2876 4.19643 19.07 4.08781C18.8524 3.9792 18.6055 3.94401 18.3663 3.98751C18.127 4.03101 17.9083 4.15086 17.7429 4.32911C17.5775 4.50735 17.4743 4.7344 17.4487 4.97623L11.0625 45.7875Z" fill="#FFA712"/>
<path d="M31.095 26.2688L36.03 21.2063L31.0931 11.7919C30.9845 11.5893 30.8229 11.4199 30.6256 11.3019C30.4283 11.1838 30.2027 11.1215 29.9728 11.1215C29.7429 11.1215 29.5173 11.1838 29.32 11.3019C29.1227 11.4199 28.9612 11.5893 28.8525 11.7919L26.2144 16.8206V17.25L31.095 26.2688Z" fill="#F4BD62"/>
<path d="M31.0069 26.0625L35.805 21.15L31.0069 12C30.9283 11.802 30.7942 11.6309 30.6206 11.5073C30.447 11.3838 30.2414 11.3131 30.0285 11.3038C29.8157 11.2945 29.6047 11.3469 29.421 11.4548C29.2372 11.5627 29.0887 11.7215 28.9931 11.9119L26.3419 17.0288L26.2631 17.2894L31.0069 26.0625Z" fill="#FFA50E"/>
<path d="M10.8788 46.1269L11.0231 45.9806L11.5463 45.7687L30.7838 26.6025L31.0275 25.9387L26.2294 16.7925L10.8788 46.1269Z" fill="#F6820C"/>
<path d="M31.71 55.7925L49.125 46.0819L44.1487 15.4612C44.1131 15.2454 44.0186 15.0435 43.8757 14.8778C43.7329 14.7121 43.5471 14.589 43.3388 14.522C43.1306 14.4549 42.9079 14.4466 42.6952 14.4978C42.4825 14.5491 42.288 14.658 42.1331 14.8125L10.875 46.125L28.1869 55.7906C28.7251 56.0909 29.3312 56.2486 29.9475 56.2486C30.5638 56.2486 31.1699 56.0909 31.7081 55.7906" fill="#FDE068"/>
<path d="M48.9656 46.0013L44.0306 15.6113C44.0219 15.4048 43.9521 15.2056 43.8302 15.0388C43.7082 14.872 43.5394 14.7451 43.3453 14.6743C43.1512 14.6034 42.9404 14.5917 42.7397 14.6407C42.5389 14.6897 42.3572 14.7971 42.2175 14.9494L11.0625 46.0669L28.1831 55.6294C28.7171 55.9273 29.3183 56.0837 29.9297 56.0837C30.5411 56.0837 31.1423 55.9273 31.6762 55.6294L48.9656 46.0013Z" fill="#FCCA3F"/>
<path d="M31.71 55.5C31.1718 55.8003 30.5657 55.958 29.9494 55.958C29.333 55.958 28.727 55.8003 28.1888 55.5L11.0175 45.9787L10.875 46.125L28.1869 55.7906C28.7251 56.0909 29.3312 56.2486 29.9475 56.2486C30.5638 56.2486 31.1699 56.0909 31.7081 55.7906L49.125 46.0818L49.0819 45.8193L31.71 55.5Z" fill="#EEAB37"/>
</svg>
