<svg width="60" height="60" viewBox="0 0 60 60" fill="none" xmlns="http://www.w3.org/2000/svg">
<path d="M42.5 30C42.5 36.9035 36.9035 42.5 30 42.5C23.0964 42.5 17.5 36.9035 17.5 30C17.5 23.0964 23.0964 17.5 30 17.5C36.9035 17.5 42.5 23.0964 42.5 30Z" fill="#1C274C"/>
<path fill-rule="evenodd" clip-rule="evenodd" d="M30 3.125C31.0355 3.125 31.875 3.96448 31.875 5V10C31.875 11.0355 31.0355 11.875 30 11.875C28.9645 11.875 28.125 11.0355 28.125 10V5C28.125 3.96448 28.9645 3.125 30 3.125ZM3.125 30C3.125 28.9645 3.96448 28.125 5 28.125H10C11.0355 28.125 11.875 28.9645 11.875 30C11.875 31.0355 11.0355 31.875 10 31.875H5C3.96448 31.875 3.125 31.0355 3.125 30ZM48.125 30C48.125 28.9645 48.9645 28.125 50 28.125H55C56.0355 28.125 56.875 28.9645 56.875 30C56.875 31.0355 56.0355 31.875 55 31.875H50C48.9645 31.875 48.125 31.0355 48.125 30ZM30 48.125C31.0355 48.125 31.875 48.9645 31.875 50V55C31.875 56.0355 31.0355 56.875 30 56.875C28.9645 56.875 28.125 56.0355 28.125 55V50C28.125 48.9645 28.9645 48.125 30 48.125Z" fill="#1C274C"/>
<g opacity="0.5">
<path d="M9.17298 9.289C9.87173 8.52475 11.0577 8.47167 11.822 9.17042L17.377 14.2494C18.1413 14.9481 18.1944 16.1341 17.4956 16.8984C16.7969 17.6626 15.6109 17.7157 14.8466 17.017L9.29158 11.938C8.52733 11.2392 8.47423 10.0532 9.17298 9.289Z" fill="#1C274C"/>
<path d="M50.8298 9.289C51.5285 10.0532 51.4755 11.2392 50.7113 11.938L45.156 17.017C44.3918 17.7157 43.2058 17.6626 42.507 16.8984C41.8083 16.1341 41.8615 14.9481 42.6258 14.2494L48.1808 9.17042C48.945 8.47167 50.131 8.52475 50.8298 9.289Z" fill="#1C274C"/>
<path d="M42.5653 42.5618C43.2975 41.8295 44.4845 41.8298 45.2168 42.562L50.7718 48.1178C51.504 48.85 51.504 50.037 50.7718 50.7693C50.0395 51.5015 48.8523 51.5015 48.12 50.769L42.565 45.2135C41.8328 44.481 41.833 43.294 42.5653 42.5618Z" fill="#1C274C"/>
<path d="M17.438 42.5623C18.1703 43.2943 18.1703 44.4815 17.438 45.2138L11.8825 50.7693C11.1502 51.5015 9.96305 51.5015 9.23083 50.7693C8.49858 50.037 8.49858 48.85 9.23083 48.1178L14.7864 42.562C15.5186 41.83 16.7058 41.83 17.438 42.5623Z" fill="#1C274C"/>
</g>
</svg>
