<svg xmlns="http://www.w3.org/2000/svg" width="60" height="60" viewBox="0 0 60 60" fill="none">
  <path d="M49.7503 5.76798C49.348 4.74401 47.904 4.74401 47.5018 5.76798L46.4258 8.50618C46.303 8.81881 46.0565 9.06628 45.745 9.18958L43.0168 10.2695C41.9965 10.6734 41.9965 12.1225 43.0168 12.5264L45.745 13.6063C46.0565 13.7296 46.303 13.9771 46.4258 14.2897L47.5018 17.0279C47.904 18.0519 49.348 18.0519 49.7503 17.0279L50.8263 14.2897C50.949 13.9771 51.1955 13.7296 51.507 13.6063L54.2353 12.5264C55.2555 12.1225 55.2555 10.6734 54.2353 10.2695L51.507 9.18958C51.1955 9.06628 50.949 8.81881 50.8263 8.50618L49.7503 5.76798Z" fill="#FFF500"/>
  <path d="M40.082 20.3241C39.6795 19.3002 38.2357 19.3002 37.8332 20.3241L37.441 21.3225C37.3182 21.6351 37.0717 21.8826 36.7602 22.0059L35.7655 22.3996C34.7452 22.8035 34.7452 24.2526 35.7655 24.6565L36.7602 25.0502C37.0717 25.1734 37.3182 25.4209 37.441 25.7337L37.8332 26.7319C38.2357 27.7559 39.6795 27.7559 40.082 26.7319L40.4742 25.7337C40.597 25.4209 40.8435 25.1734 41.155 25.0502L42.1497 24.6565C43.17 24.2526 43.17 22.8035 42.1497 22.3996L41.155 22.0059C40.8435 21.8826 40.597 21.6351 40.4742 21.3225L40.082 20.3241Z" fill="#FFF500"/>
  <path opacity="0.5" d="M30 55C43.807 55 55 43.807 55 30C55 28.8433 53.2662 28.652 52.668 29.642C49.8222 34.3515 44.6537 37.5 38.75 37.5C29.7752 37.5 22.5 30.2248 22.5 21.25C22.5 15.3461 25.6485 10.1776 30.358 7.3319C31.348 6.73368 31.1567 5 30 5C16.1929 5 5 16.1929 5 30C5 43.807 16.1929 55 30 55Z" fill="#FFFDD2"/>
</svg>